# xmcd
#
# Track frame offsets: 
#        150
#        23782
#        41750
#        70344
#        91722
#        113982
#        130556
#        149611
#        172331
#        196387
#
# Disc length: 2883 seconds
#
# Revision: 0
# Processed by: cddbd v1.5.1PL2 Copyright (c) Steve Scherf et al.
# Submitted via: ExactAudioCopy v0.95a5
#
DISCID=8f0b410a
DTITLE=Roy Hightower - Cyber Sex
DYEAR=1999
DGENRE=Blues
TTITLE0=Cyber Sex
TTITLE1=Conjure Woman/Man
TTITLE2=Daddy Jack
TTITLE3=Everybody Affair
TTITLE4=Love By Design
TTITLE5=You Pleases Me
TTITLE6=Squeeze Me Like A Lemon
TTITLE7=Dirty Smokin' Blues
TTITLE8=Shy
TTITLE9=Get It Right
EXTD=
EXTT0=
EXTT1=
EXTT2=
EXTT3=
EXTT4=
EXTT5=
EXTT6=
EXTT7=
EXTT8=
EXTT9=
PLAYORDER=
